<?xml version="1.0" encoding="utf-8"?>
<!-- Generator: Adobe Illustrator 19.0.0, SVG Export Plug-In . SVG Version: 6.00 Build 0)  -->
<svg version="1.1" id="Layer_1" xmlns="http://www.w3.org/2000/svg" xmlns:xlink="http://www.w3.org/1999/xlink" x="0px" y="0px"
	 viewBox="-936 518 46 46" style="enable-background:new -936 518 46 46;" xml:space="preserve">
<style type="text/css">
	.st0{fill:#61C5C2;}
	.st1{fill:none;stroke:#FFFFFF;stroke-width:3;stroke-miterlimit:10;}
	.st2{fill:#FFFFFF;}
</style>
<g id="XMLID_9_">
	<circle id="XMLID_25_" class="st0" cx="-913" cy="541" r="23"/>
	<circle id="XMLID_24_" class="st1" cx="-913" cy="541" r="18.7"/>
	<g id="XMLID_19_">
		<path id="XMLID_23_" class="st2" d="M-918.5,545.7c7-8.2,14-16.5,21-24.7c-1.2,4.5-1.5,9.3-4.6,13c-1.8,2.1-3.7,4-5.7,6
			c-5.1,5.2-10.3,10.3-15.4,15.6c-0.4,0.4-0.6,0.2-0.8,0.7c-1-1.1-1.6-1.8-1.7-3.4c-0.2-2.6,0.9-4.8,2.4-6.8c0.6-0.9,1.3-1.7,2-2.6
			c0.3-0.4,0.5-0.8,0.8-1.2c1-1.7,0.6-2.4-1.3-2.5c-1.3-0.1-2.6-0.2-3.8-0.4c-0.4,0-0.7-0.3-1.1-0.5c0.3-0.3,0.6-0.5,1-0.8
			c0.2-0.1,0.5-0.2,0.7-0.2c1.5-0.3,2.8-0.8,4.1-1.5c0.7-0.4,1.6-0.6,2.4-0.5c2.2,0.3,3.3,1.9,2.7,4.1c-0.3,1.1-0.8,2.1-1.3,3.1
			c-0.4,0.9-0.9,1.7-1.4,2.6C-918.6,545.6-918.5,545.7-918.5,545.7z"/>
		<path id="XMLID_22_" class="st2" d="M-922.1,557.1c7.8-7.3,15.4-14.6,23.3-22c-0.1,0.4-0.2,0.6-0.2,0.7c-0.6,1.6-1.2,3.1-1.8,4.7
			c-0.9,2.4-2.3,4.3-4.3,5.9c-4.6,3.7-9.3,7.5-13.9,11.3c-0.7,0.5-1.2,0.6-1.8,0.1C-921.2,557.7-921.6,557.4-922.1,557.1z"/>
		<path id="XMLID_20_" class="st2" d="M-900.9,546.5c-0.8,1.6-1.5,3.3-2.5,4.7c-0.8,1.2-1.9,2.3-3.1,3.2c-1.9,1.4-4,2.6-5.9,4
			c-1,0.7-2,1-3.1,0.9c-0.5-0.1-1.1-0.1-1.9-0.2c5.5-4.3,10.9-8.6,16.3-12.8C-901.1,546.4-901,546.4-900.9,546.5z"/>
	</g>
</g>
</svg>
