<?xml version="1.0" encoding="utf-8"?>
<!-- Generator: Adobe Illustrator 19.0.0, SVG Export Plug-In . SVG Version: 6.00 Build 0)  -->
<svg version="1.1" id="Layer_1" xmlns="http://www.w3.org/2000/svg" xmlns:xlink="http://www.w3.org/1999/xlink" x="0px" y="0px"
	 viewBox="-882 517.9 154.9 46.1" style="enable-background:new -882 517.9 154.9 46.1;" xml:space="preserve">
<style type="text/css">
	.st0{fill:#61C5C2;}
	.st1{fill:none;stroke:#FFFFFF;stroke-width:3;stroke-miterlimit:10;}
	.st2{fill:#FFFFFF;}
	.st3{fill:#007D80;}
</style>
<g id="XMLID_8_">
	<text transform="matrix(1 0 0 1 -1765.2495 1072.3694)" class="st0" style="font-family:'Cocogoose'; font-size:34.5886px;">Soft</text>
	<text transform="matrix(1 0 0 1 -1687.2495 1072.3694)" class="st3" style="font-family:'Cocogoose'; font-size:34.5886px;">Teal</text>
	<g id="XMLID_9_">
		<circle id="XMLID_25_" class="st0" cx="-1729.7" cy="1061.6" r="9.1"/>
		<circle id="XMLID_24_" class="st1" cx="-1729.7" cy="1061.6" r="7.4"/>
		<g id="XMLID_19_">
			<path id="XMLID_23_" class="st2" d="M-1731.9,1063.4c2.8-3.3,5.5-6.5,8.3-9.8c-0.5,1.8-0.6,3.7-1.8,5.1c-0.7,0.8-1.5,1.6-2.2,2.4
				c-2,2.1-4.1,4.1-6.1,6.2c-0.1,0.2-0.2,0.1-0.3,0.3c-0.4-0.4-0.6-0.7-0.7-1.4c-0.1-1,0.3-1.9,0.9-2.7c0.3-0.3,0.5-0.7,0.8-1
				c0.1-0.2,0.2-0.3,0.3-0.5c0.4-0.7,0.3-0.9-0.5-1c-0.5,0-1-0.1-1.5-0.1c-0.1,0-0.3-0.1-0.4-0.2c0.1-0.1,0.3-0.2,0.4-0.3
				c0.1-0.1,0.2-0.1,0.3-0.1c0.6-0.1,1.1-0.3,1.6-0.6c0.3-0.2,0.6-0.2,0.9-0.2c0.9,0.1,1.3,0.8,1.1,1.6c-0.1,0.4-0.3,0.8-0.5,1.2
				C-1731.5,1062.7-1731.7,1063-1731.9,1063.4L-1731.9,1063.4z"/>
			<path id="XMLID_22_" class="st2" d="M-1733.3,1067.9c3.1-2.9,6.1-5.8,9.2-8.7c0,0.1-0.1,0.2-0.1,0.3c-0.2,0.6-0.5,1.2-0.7,1.9
				c-0.4,0.9-0.9,1.7-1.7,2.3c-1.8,1.5-3.7,3-5.5,4.5c-0.3,0.2-0.5,0.2-0.7,0.1C-1732.9,1068.2-1733.1,1068.1-1733.3,1067.9z"/>
			<path id="XMLID_20_" class="st2" d="M-1724.9,1063.7c-0.3,0.6-0.6,1.3-1,1.9c-0.3,0.5-0.8,0.9-1.2,1.3c-0.7,0.6-1.6,1-2.3,1.6
				c-0.4,0.3-0.8,0.4-1.2,0.3c-0.2,0-0.4,0-0.7-0.1C-1729.2,1067-1727.1,1065.4-1724.9,1063.7L-1724.9,1063.7z"/>
		</g>
	</g>
</g>
<g>
	<g>
		<path class="st0" d="M-876.7,545.2c0.2,0.2,0.4,0.4,0.7,0.6c0.3,0.3,0.6,0.5,1,0.8c0.6,0.4,1.2,0.7,1.7,0.9s1.2,0.3,1.8,0.3
			c0.6,0,1.1-0.1,1.5-0.2c0.4-0.1,0.7-0.3,0.9-0.5s0.4-0.5,0.5-0.8c0.1-0.3,0.1-0.6,0.1-0.9c0-0.4-0.1-0.7-0.4-0.9
			c-0.3-0.3-0.6-0.5-1-0.7s-0.8-0.4-1.2-0.6c-0.4-0.2-0.8-0.3-1.1-0.4c-1.4-0.5-2.6-1-3.6-1.5c-1-0.6-1.9-1.2-2.6-1.8
			s-1.2-1.4-1.5-2.2c-0.3-0.8-0.5-1.7-0.5-2.7c0-1.1,0.2-2,0.6-2.9c0.4-0.9,1-1.6,1.8-2.2c0.8-0.6,1.7-1.1,2.9-1.4
			c1.1-0.3,2.4-0.5,3.8-0.5c1,0,2,0.1,3,0.4c1,0.2,1.9,0.6,2.8,1.1c0.4,0.2,0.8,0.5,1.1,0.7c0.3,0.2,0.7,0.5,0.9,0.7
			c0.3,0.2,0.5,0.4,0.6,0.7s0.2,0.4,0.2,0.5s0,0.3-0.1,0.4s-0.2,0.3-0.3,0.4l-2.6,2.8c-0.2,0.2-0.4,0.3-0.6,0.3
			c-0.2,0-0.3,0-0.4-0.1c-0.1-0.1-0.3-0.2-0.4-0.3l-0.2-0.1c-0.2-0.2-0.5-0.4-0.8-0.6s-0.6-0.4-0.9-0.6c-0.3-0.2-0.7-0.3-1-0.4
			c-0.4-0.1-0.7-0.2-1.1-0.2c-0.4,0-0.7,0-1.1,0.1c-0.3,0.1-0.6,0.2-0.9,0.3c-0.3,0.1-0.5,0.3-0.6,0.5c-0.1,0.2-0.2,0.5-0.2,0.8
			c0,0.3,0.1,0.6,0.2,0.8c0.2,0.2,0.4,0.5,0.7,0.7c0.3,0.2,0.7,0.4,1.2,0.6c0.5,0.2,1,0.4,1.7,0.6c1.2,0.4,2.3,0.8,3.3,1.3
			s1.9,1,2.6,1.6c0.7,0.6,1.3,1.3,1.7,2.1c0.4,0.8,0.6,1.8,0.6,3c0,1.3-0.3,2.4-0.8,3.4c-0.5,1-1.2,1.9-2.1,2.6
			c-0.9,0.7-1.9,1.3-3.2,1.7c-1.2,0.4-2.5,0.6-3.9,0.6c-1.3,0-2.6-0.2-3.9-0.7c-1.3-0.5-2.4-1.1-3.5-1.9c-0.5-0.3-0.8-0.7-1.2-1
			c-0.3-0.3-0.6-0.6-0.7-0.8l-0.1-0.1c0,0,0,0,0,0c0,0,0,0,0,0c0,0,0,0,0,0c0,0,0,0,0,0c-0.3-0.3-0.4-0.5-0.4-0.7
			c0-0.2,0.1-0.4,0.4-0.7l3-2.8c0.2-0.2,0.4-0.3,0.6-0.3c0.1,0,0.2,0,0.3,0.1C-877,544.9-876.9,545-876.7,545.2z"/>
		<path class="st0" d="M-858.8,542.5c0-1,0.1-2.1,0.4-3s0.6-1.9,1.1-2.7c0.5-0.8,1.1-1.6,1.7-2.3c0.7-0.7,1.4-1.3,2.3-1.7
			s1.7-0.9,2.7-1.1s2-0.4,3-0.4c1.6,0,3,0.3,4.4,0.9c1.4,0.6,2.6,1.4,3.6,2.4c1,1,1.8,2.2,2.4,3.6c0.6,1.4,0.9,2.8,0.9,4.4
			c0,1.1-0.1,2.1-0.4,3s-0.6,1.9-1.1,2.7s-1.1,1.6-1.7,2.3c-0.7,0.7-1.4,1.3-2.3,1.7c-0.8,0.5-1.7,0.9-2.7,1.1s-1.9,0.4-3,0.4
			c-1.1,0-2.1-0.1-3-0.4s-1.9-0.6-2.7-1.1c-0.8-0.5-1.6-1.1-2.3-1.7c-0.7-0.7-1.3-1.4-1.7-2.3s-0.9-1.7-1.1-2.7
			S-858.8,543.6-858.8,542.5z M-852.6,542.5c0,0.8,0.1,1.5,0.4,2.1c0.2,0.7,0.6,1.2,1,1.7c0.4,0.5,0.9,0.9,1.6,1.1
			c0.6,0.3,1.3,0.4,2.1,0.4c0.7,0,1.4-0.1,2-0.4c0.6-0.3,1.1-0.7,1.5-1.1c0.4-0.5,0.7-1,1-1.7c0.2-0.7,0.3-1.4,0.3-2.1
			c0-0.7-0.1-1.4-0.3-2.1s-0.5-1.2-1-1.7c-0.4-0.5-0.9-0.9-1.5-1.2c-0.6-0.3-1.3-0.4-2-0.4c-0.8,0-1.5,0.1-2.1,0.4
			c-0.6,0.3-1.1,0.7-1.6,1.2c-0.4,0.5-0.8,1.1-1,1.7S-852.6,541.8-852.6,542.5z"/>
		<path class="st0" d="M-830.8,531.9c0-1.1,0.2-2.1,0.7-3c0.5-0.9,1.1-1.8,1.8-2.5c0.8-0.7,1.6-1.3,2.6-1.7c1-0.4,2-0.6,3.1-0.6h0.3
			c0.4,0,0.7,0.1,0.9,0.4c0.2,0.2,0.3,0.6,0.3,1v3.3c0,0.4-0.1,0.8-0.3,1.1c-0.2,0.3-0.5,0.4-0.9,0.4h-0.3c-0.2,0-0.5,0-0.7,0.1
			c-0.2,0.1-0.4,0.2-0.6,0.4c-0.2,0.1-0.3,0.3-0.4,0.5c-0.1,0.2-0.2,0.4-0.2,0.7v2h2.7c0.4,0,0.7,0.1,0.9,0.3c0.2,0.2,0.3,0.5,0.3,1
			v3.1c0,0.5-0.1,0.9-0.3,1.1c-0.2,0.2-0.5,0.3-0.9,0.3h-2.7v12.3c0,0.4-0.1,0.8-0.4,1c-0.3,0.2-0.6,0.3-1,0.3h-3.7
			c-0.4,0-0.7-0.1-1-0.4s-0.4-0.6-0.4-0.9v-12.3h-1.8c-0.4,0-0.7-0.1-1-0.3c-0.2-0.2-0.4-0.6-0.4-1.1v-3.1c0-0.5,0.1-0.8,0.4-1
			c0.2-0.2,0.6-0.3,1-0.3h1.8V531.9z"/>
		<path class="st0" d="M-816.7,528.2c0-0.4,0.1-0.6,0.4-0.8c0.2-0.2,0.6-0.3,1-0.5l3.9-1.4c0.1,0,0.1,0,0.2,0c0.1,0,0.1,0,0.1,0
			c0.4,0,0.7,0.1,0.8,0.4c0.1,0.2,0.2,0.6,0.2,1l0,4.7h2.3c0.4,0,0.7,0.1,0.9,0.3s0.3,0.5,0.3,1v3.3c0,0.5-0.1,0.8-0.3,1.1
			s-0.5,0.3-0.9,0.3h-2.3l0,14.5c0,0.4-0.1,0.8-0.4,1c-0.3,0.2-0.6,0.3-1,0.3h-3.9c-0.9,0-1.3-0.4-1.3-1.3l0-14.5h-1.8
			c-0.9,0-1.3-0.5-1.3-1.4v-3.3c0-0.9,0.4-1.3,1.3-1.3h1.8L-816.7,528.2z"/>
		<path class="st3" d="M-804,528.7c0-0.2,0.1-0.4,0.2-0.5c0.2-0.1,0.3-0.2,0.6-0.2h18.4c0.2,0,0.4,0.1,0.5,0.2
			c0.2,0.1,0.3,0.3,0.3,0.6v4.3c0,0.2-0.1,0.4-0.2,0.6c-0.1,0.2-0.3,0.3-0.6,0.3h-5.9v18.8c0,0.2-0.1,0.4-0.2,0.6
			c-0.1,0.2-0.3,0.2-0.6,0.2h-5c-0.2,0-0.4-0.1-0.5-0.2c-0.2-0.2-0.3-0.3-0.3-0.6v-18.8h-5.9c-0.2,0-0.4-0.1-0.6-0.2
			c-0.2-0.1-0.2-0.4-0.2-0.6V528.7z"/>
		<path class="st3" d="M-767,550.8c-1,0.9-2.1,1.6-3.4,2.2c-1.3,0.5-2.6,0.8-4,0.8c-1.6,0-3-0.3-4.4-0.9c-1.4-0.6-2.6-1.4-3.7-2.4
			c-1-1-1.9-2.2-2.5-3.6c-0.6-1.4-0.9-2.9-0.9-4.5c0-1,0.1-2,0.4-2.9c0.2-0.9,0.6-1.8,1-2.6c0.5-0.8,1-1.6,1.6-2.3
			c0.6-0.7,1.4-1.3,2.2-1.8c0.8-0.5,1.7-0.9,2.6-1.1c0.9-0.3,1.9-0.4,3-0.4c0.9,0,1.9,0.1,2.8,0.4s1.7,0.6,2.5,1.1
			c0.8,0.5,1.5,1,2.1,1.6c0.7,0.6,1.2,1.3,1.7,2.1c0.5,0.8,0.8,1.6,1.1,2.4c0.3,0.9,0.4,1.7,0.4,2.7c0,0.6,0,1.1,0,1.5
			c0,0.4-0.1,0.7-0.3,0.9c-0.2,0.2-0.4,0.4-0.8,0.5c-0.4,0.1-0.9,0.1-1.6,0.1h-12.3c0.1,0.7,0.3,1.3,0.7,1.8
			c0.3,0.5,0.8,0.9,1.2,1.2c0.5,0.3,0.9,0.5,1.5,0.6c0.5,0.1,1,0.2,1.5,0.2c0.4,0,0.8,0,1.3-0.1c0.4-0.1,0.9-0.2,1.3-0.3
			c0.4-0.1,0.8-0.3,1.1-0.5s0.6-0.4,0.8-0.6c0.2-0.1,0.3-0.3,0.5-0.3c0.1-0.1,0.3-0.1,0.4-0.1s0.3,0.1,0.5,0.2
			c0.2,0.1,0.3,0.3,0.5,0.4l1.8,2.1c0.1,0.1,0.2,0.3,0.2,0.4s0.1,0.2,0.1,0.4c0,0.2-0.1,0.4-0.2,0.6
			C-766.7,550.5-766.8,550.6-767,550.8z M-775.2,536.5c-0.4,0-0.9,0.1-1.3,0.3c-0.4,0.2-0.8,0.4-1.2,0.7s-0.7,0.6-1,1
			c-0.3,0.4-0.5,0.8-0.7,1.1h8.8c-0.2-0.4-0.5-0.9-0.8-1.2c-0.3-0.4-0.6-0.7-1-1c-0.4-0.3-0.8-0.5-1.2-0.7
			C-774.1,536.6-774.6,536.5-775.2,536.5z"/>
		<path class="st3" d="M-738.6,552.1c0,0.2,0,0.4-0.1,0.6c-0.1,0.2-0.2,0.3-0.3,0.4c-0.1,0.1-0.3,0.2-0.4,0.2
			c-0.2,0-0.3,0.1-0.4,0.1h-3.4c-0.2,0-0.4,0-0.6-0.1c-0.1-0.1-0.3-0.2-0.4-0.3c-0.1-0.1-0.2-0.3-0.2-0.4c-0.1-0.2-0.1-0.3-0.2-0.5
			l-0.2-0.8c-0.3,0.3-0.7,0.6-1.1,0.9c-0.4,0.3-0.8,0.6-1.3,0.8c-0.5,0.2-1,0.4-1.5,0.6c-0.5,0.1-1.1,0.2-1.7,0.2c-1,0-2-0.1-3-0.4
			s-1.8-0.6-2.7-1.1c-0.8-0.5-1.6-1.1-2.3-1.7c-0.7-0.7-1.3-1.4-1.7-2.3s-0.9-1.7-1.1-2.7s-0.4-2-0.4-3c0-1.6,0.3-3.1,0.9-4.4
			c0.6-1.4,1.4-2.6,2.4-3.6c1-1,2.2-1.8,3.5-2.4c1.4-0.6,2.8-0.9,4.4-0.9c0.7,0,1.4,0.1,2,0.2c0.6,0.2,1.2,0.4,1.7,0.7
			c0.5,0.3,1,0.6,1.4,1c0.4,0.4,0.8,0.8,1.1,1.2l0.5-1.6c0.1-0.3,0.2-0.5,0.3-0.7c0.1-0.2,0.2-0.3,0.2-0.4c0.1-0.1,0.2-0.1,0.3-0.2
			c0.1,0,0.3,0,0.5,0h2.6c0.1,0,0.3,0,0.4,0.1c0.2,0,0.3,0.1,0.4,0.2c0.2,0.1,0.3,0.3,0.3,0.4c0.1,0.2,0.1,0.3,0.1,0.5V552.1z
			 M-755.4,542.5c0,0.8,0.1,1.5,0.4,2.1c0.2,0.7,0.6,1.2,1,1.7c0.4,0.5,1,0.9,1.6,1.1c0.6,0.3,1.3,0.4,2,0.4c0.8,0,1.5-0.1,2.1-0.4
			c0.7-0.3,1.2-0.7,1.7-1.1s0.9-1,1.1-1.7c0.3-0.7,0.4-1.4,0.4-2.1c0-0.7-0.1-1.4-0.4-2.1s-0.7-1.2-1.1-1.7
			c-0.5-0.5-1.1-0.9-1.7-1.2c-0.7-0.3-1.4-0.4-2.1-0.4c-0.7,0-1.4,0.1-2,0.4c-0.6,0.3-1.1,0.7-1.6,1.2c-0.4,0.5-0.8,1.1-1,1.7
			C-755.3,541.1-755.4,541.8-755.4,542.5z"/>
		<path class="st3" d="M-734.5,526.5c0-0.4,0.1-0.7,0.3-0.9c0.2-0.3,0.5-0.4,0.9-0.4h4.2c0.1,0,0.2,0,0.4,0.1
			c0.1,0.1,0.2,0.2,0.4,0.3c0.1,0.1,0.2,0.3,0.3,0.4c0.1,0.2,0.1,0.3,0.1,0.5v25.6c0,0.4-0.1,0.8-0.4,1c-0.2,0.2-0.6,0.3-1,0.3h-4
			c-0.4,0-0.8-0.1-0.9-0.3s-0.3-0.6-0.3-1V526.5z"/>
	</g>
	<g id="XMLID_2_">
		<circle id="XMLID_10_" class="st0" cx="-847.4" cy="542.7" r="9"/>
		<circle id="XMLID_7_" class="st1" cx="-847.4" cy="542.7" r="7.4"/>
		<g id="XMLID_3_">
			<path id="XMLID_6_" class="st2" d="M-849.6,544.5c2.7-3.2,5.5-6.5,8.2-9.7c-0.5,1.7-0.6,3.6-1.8,5.1c-0.7,0.8-1.5,1.6-2.2,2.3
				c-2,2-4,4.1-6,6.1c-0.1,0.1-0.2,0.1-0.3,0.3c-0.4-0.4-0.6-0.7-0.7-1.3c-0.1-1,0.3-1.9,0.9-2.7c0.3-0.3,0.5-0.7,0.8-1
				c0.1-0.2,0.2-0.3,0.3-0.5c0.4-0.7,0.3-0.9-0.5-1c-0.5,0-1-0.1-1.5-0.1c-0.1,0-0.3-0.1-0.4-0.2c0.1-0.1,0.3-0.2,0.4-0.3
				c0.1,0,0.2-0.1,0.3-0.1c0.6-0.1,1.1-0.3,1.6-0.6c0.3-0.2,0.6-0.2,0.9-0.2c0.9,0.1,1.3,0.7,1.1,1.6c-0.1,0.4-0.3,0.8-0.5,1.2
				C-849.3,543.8-849.5,544.1-849.6,544.5C-849.6,544.5-849.6,544.5-849.6,544.5z"/>
			<path id="XMLID_5_" class="st2" d="M-851,549c3-2.9,6.1-5.7,9.1-8.6c0,0.1-0.1,0.2-0.1,0.3c-0.2,0.6-0.5,1.2-0.7,1.8
				c-0.4,0.9-0.9,1.7-1.7,2.3c-1.8,1.5-3.6,2.9-5.4,4.4c-0.3,0.2-0.5,0.2-0.7,0.1C-850.7,549.2-850.8,549.1-851,549z"/>
			<path id="XMLID_4_" class="st2" d="M-842.7,544.8c-0.3,0.6-0.6,1.3-1,1.9c-0.3,0.5-0.8,0.9-1.2,1.3c-0.7,0.6-1.6,1-2.3,1.6
				c-0.4,0.3-0.8,0.4-1.2,0.3c-0.2,0-0.4,0-0.7-0.1C-847,548.1-844.9,546.4-842.7,544.8C-842.8,544.8-842.7,544.8-842.7,544.8z"/>
		</g>
	</g>
</g>
</svg>
