<?xml version="1.0" encoding="utf-8"?>
<!-- Generator: Adobe Illustrator 19.0.0, SVG Export Plug-In . SVG Version: 6.00 Build 0)  -->
<svg version="1.1" id="Layer_1" xmlns="http://www.w3.org/2000/svg" xmlns:xlink="http://www.w3.org/1999/xlink" x="0px" y="0px"
	 viewBox="-882 517.9 154.9 46.1" style="enable-background:new -882 517.9 154.9 46.1;" xml:space="preserve">
<style type="text/css">
	.st0{enable-background:new    ;}
	.st1{fill:#FFFFFF;}
	.st2{fill:#61C5C2;}
	.st3{fill:none;stroke:#FFFFFF;stroke-width:3;stroke-miterlimit:10;}
</style>
<g class="st0">
	<path class="st1" d="M-874.5,545.5c0.2,0.2,0.4,0.4,0.7,0.6c0.3,0.3,0.6,0.5,1,0.8c0.6,0.4,1.1,0.7,1.7,0.9
		c0.6,0.2,1.1,0.3,1.7,0.3c0.6,0,1-0.1,1.4-0.2c0.4-0.1,0.7-0.3,0.9-0.5s0.4-0.5,0.5-0.7c0.1-0.3,0.1-0.6,0.1-0.9
		c0-0.3-0.1-0.7-0.4-0.9c-0.3-0.3-0.6-0.5-1-0.7c-0.4-0.2-0.8-0.4-1.2-0.5c-0.4-0.2-0.8-0.3-1.1-0.4c-1.3-0.5-2.5-1-3.5-1.5
		c-1-0.5-1.8-1.1-2.5-1.8s-1.2-1.4-1.5-2.2c-0.3-0.8-0.5-1.7-0.5-2.7c0-1,0.2-2,0.6-2.8c0.4-0.8,1-1.6,1.8-2.2
		c0.8-0.6,1.7-1.1,2.8-1.4s2.3-0.5,3.6-0.5c1,0,2,0.1,2.9,0.3c0.9,0.2,1.8,0.6,2.7,1.1c0.4,0.2,0.7,0.5,1.1,0.7
		c0.3,0.2,0.6,0.5,0.9,0.7c0.3,0.2,0.5,0.4,0.6,0.6c0.2,0.2,0.2,0.4,0.2,0.5s0,0.3-0.1,0.4c-0.1,0.1-0.2,0.3-0.3,0.4l-2.5,2.7
		c-0.2,0.2-0.4,0.3-0.6,0.3c-0.2,0-0.3,0-0.4-0.1c-0.1-0.1-0.3-0.2-0.4-0.3l-0.1-0.1c-0.2-0.2-0.5-0.4-0.7-0.6
		c-0.3-0.2-0.6-0.4-0.9-0.5c-0.3-0.2-0.6-0.3-1-0.4c-0.3-0.1-0.7-0.2-1-0.2c-0.4,0-0.7,0-1,0.1c-0.3,0.1-0.6,0.2-0.9,0.3
		c-0.2,0.1-0.4,0.3-0.6,0.5c-0.1,0.2-0.2,0.5-0.2,0.8c0,0.3,0.1,0.6,0.2,0.8s0.4,0.4,0.7,0.6c0.3,0.2,0.7,0.4,1.2,0.5
		c0.5,0.2,1,0.4,1.6,0.6c1.2,0.4,2.3,0.8,3.3,1.2s1.9,0.9,2.6,1.5s1.3,1.3,1.7,2.1c0.4,0.8,0.6,1.8,0.6,3c0,1.2-0.2,2.3-0.7,3.3
		s-1.2,1.8-2.1,2.5s-1.9,1.2-3.1,1.6c-1.2,0.4-2.4,0.6-3.8,0.6c-1.3,0-2.5-0.2-3.8-0.7c-1.2-0.5-2.4-1.1-3.4-1.8
		c-0.4-0.3-0.8-0.6-1.1-1c-0.3-0.3-0.5-0.6-0.7-0.8l-0.1-0.1c0,0,0,0,0,0c0,0,0,0,0,0c0,0,0,0,0,0c0,0,0,0,0,0
		c-0.3-0.3-0.4-0.5-0.4-0.7c0-0.2,0.1-0.4,0.4-0.6l2.9-2.7c0.2-0.2,0.4-0.3,0.6-0.3c0.1,0,0.2,0,0.3,0.1
		C-874.7,545.2-874.6,545.3-874.5,545.5z"/>
	<path class="st1" d="M-857,542.9c0-1,0.1-2,0.4-2.9s0.6-1.8,1.1-2.6c0.5-0.8,1-1.5,1.7-2.2c0.7-0.7,1.4-1.2,2.2-1.7
		s1.7-0.8,2.6-1.1s1.9-0.4,2.9-0.4c1.5,0,2.9,0.3,4.3,0.8c1.3,0.6,2.5,1.3,3.5,2.3c1,1,1.8,2.1,2.3,3.5s0.9,2.8,0.9,4.3
		c0,1-0.1,2-0.4,2.9c-0.3,0.9-0.6,1.8-1.1,2.6s-1,1.5-1.7,2.2c-0.7,0.7-1.4,1.2-2.2,1.7c-0.8,0.5-1.7,0.8-2.6,1.1
		c-0.9,0.3-1.9,0.4-2.9,0.4c-1,0-2-0.1-2.9-0.4s-1.8-0.6-2.6-1.1c-0.8-0.5-1.5-1-2.2-1.7c-0.7-0.7-1.2-1.4-1.7-2.2
		c-0.5-0.8-0.8-1.7-1.1-2.6C-856.9,544.9-857,543.9-857,542.9z M-851,542.9c0,0.7,0.1,1.4,0.3,2.1s0.5,1.2,1,1.7
		c0.4,0.5,0.9,0.8,1.5,1.1s1.3,0.4,2,0.4c0.7,0,1.4-0.1,2-0.4c0.6-0.3,1.1-0.6,1.5-1.1c0.4-0.5,0.7-1,0.9-1.7
		c0.2-0.6,0.3-1.3,0.3-2.1c0-0.7-0.1-1.4-0.3-2c-0.2-0.6-0.5-1.2-0.9-1.7c-0.4-0.5-0.9-0.9-1.5-1.2c-0.6-0.3-1.2-0.4-2-0.4
		c-0.7,0-1.4,0.1-2,0.4s-1.1,0.7-1.5,1.2c-0.4,0.5-0.7,1.1-1,1.7S-851,542.2-851,542.9z"/>
	<path class="st1" d="M-829.8,532.6c0-1,0.2-2,0.7-2.9c0.4-0.9,1-1.7,1.8-2.4s1.6-1.2,2.6-1.6c1-0.4,2-0.6,3-0.6h0.3
		c0.4,0,0.7,0.1,0.9,0.3s0.3,0.5,0.3,0.9v3.2c0,0.4-0.1,0.8-0.3,1c-0.2,0.3-0.5,0.4-0.9,0.4h-0.3c-0.2,0-0.5,0-0.7,0.1
		c-0.2,0.1-0.4,0.2-0.6,0.3c-0.2,0.1-0.3,0.3-0.4,0.5c-0.1,0.2-0.1,0.4-0.1,0.6v1.9h2.6c0.4,0,0.7,0.1,0.9,0.3
		c0.2,0.2,0.3,0.5,0.3,1v3c0,0.5-0.1,0.8-0.3,1c-0.2,0.2-0.5,0.3-0.9,0.3h-2.6v11.9c0,0.4-0.1,0.7-0.4,1s-0.6,0.3-0.9,0.3h-3.6
		c-0.4,0-0.7-0.1-1-0.4s-0.4-0.6-0.4-0.9v-11.9h-1.7c-0.4,0-0.7-0.1-0.9-0.3c-0.2-0.2-0.4-0.6-0.4-1v-3c0-0.4,0.1-0.8,0.4-1
		c0.2-0.2,0.6-0.3,0.9-0.3h1.7V532.6z"/>
	<path class="st1" d="M-816.1,529c0-0.3,0.1-0.6,0.3-0.8c0.2-0.2,0.6-0.3,1-0.5l3.8-1.3c0.1,0,0.1,0,0.2,0s0.1,0,0.1,0
		c0.4,0,0.7,0.1,0.8,0.4c0.1,0.2,0.2,0.6,0.2,0.9l0,4.6h2.3c0.4,0,0.6,0.1,0.9,0.3c0.2,0.2,0.3,0.5,0.3,0.9v3.2c0,0.5-0.1,0.8-0.3,1
		c-0.2,0.2-0.5,0.3-0.9,0.3h-2.3l0,14.1c0,0.4-0.1,0.7-0.4,1c-0.2,0.2-0.6,0.3-1,0.3h-3.8c-0.9,0-1.3-0.4-1.3-1.3l0-14.1h-1.7
		c-0.9,0-1.3-0.5-1.3-1.4v-3.2c0-0.8,0.4-1.3,1.3-1.3h1.7L-816.1,529z"/>
	<path class="st1" d="M-803.8,529.4c0-0.2,0.1-0.4,0.2-0.5s0.3-0.2,0.6-0.2h17.9c0.2,0,0.4,0.1,0.5,0.2s0.2,0.3,0.3,0.5v4.1
		c0,0.2-0.1,0.4-0.2,0.6s-0.3,0.3-0.6,0.3h-5.7v18.2c0,0.2-0.1,0.4-0.2,0.5c-0.1,0.2-0.3,0.2-0.6,0.2h-4.9c-0.2,0-0.4-0.1-0.5-0.2
		c-0.2-0.1-0.3-0.3-0.3-0.6v-18.2h-5.7c-0.2,0-0.4-0.1-0.6-0.2c-0.1-0.1-0.2-0.4-0.2-0.6V529.4z"/>
	<path class="st1" d="M-767.7,550.9c-1,0.9-2.1,1.6-3.3,2.1c-1.2,0.5-2.5,0.8-3.9,0.8c-1.5,0-3-0.3-4.3-0.8s-2.5-1.3-3.6-2.3
		s-1.8-2.1-2.4-3.5s-0.9-2.8-0.9-4.3c0-1,0.1-1.9,0.4-2.8c0.2-0.9,0.6-1.8,1-2.6c0.4-0.8,1-1.5,1.6-2.2c0.6-0.7,1.3-1.2,2.1-1.7
		s1.6-0.8,2.5-1.1c0.9-0.3,1.9-0.4,2.9-0.4c0.9,0,1.8,0.1,2.7,0.4c0.9,0.2,1.7,0.6,2.4,1c0.8,0.4,1.5,1,2.1,1.6s1.2,1.3,1.6,2
		c0.5,0.7,0.8,1.5,1.1,2.4s0.4,1.7,0.4,2.6c0,0.6,0,1,0,1.4c0,0.4-0.1,0.7-0.3,0.9c-0.2,0.2-0.4,0.4-0.8,0.5
		c-0.4,0.1-0.9,0.1-1.6,0.1h-12c0.1,0.7,0.3,1.3,0.7,1.8s0.7,0.9,1.2,1.1s0.9,0.5,1.4,0.6c0.5,0.1,1,0.2,1.4,0.2
		c0.4,0,0.8,0,1.2-0.1c0.4-0.1,0.8-0.2,1.2-0.3s0.8-0.3,1.1-0.5c0.3-0.2,0.6-0.4,0.8-0.6c0.2-0.1,0.3-0.3,0.5-0.3
		c0.1-0.1,0.3-0.1,0.4-0.1c0.1,0,0.3,0,0.4,0.1c0.1,0.1,0.3,0.2,0.5,0.4l1.8,2c0.1,0.1,0.2,0.3,0.2,0.4c0,0.1,0,0.2,0,0.4
		c0,0.2-0.1,0.4-0.2,0.6S-767.5,550.8-767.7,550.9z M-775.7,537c-0.4,0-0.9,0.1-1.3,0.3c-0.4,0.2-0.8,0.4-1.1,0.7
		c-0.4,0.3-0.7,0.6-1,1s-0.5,0.7-0.7,1.1h8.5c-0.2-0.4-0.5-0.8-0.8-1.2c-0.3-0.4-0.6-0.7-0.9-1c-0.3-0.3-0.7-0.5-1.2-0.7
		C-774.6,537.1-775.1,537-775.7,537z"/>
	<path class="st1" d="M-740,552.2c0,0.2,0,0.4-0.1,0.5c-0.1,0.2-0.2,0.3-0.3,0.4c-0.1,0.1-0.3,0.2-0.4,0.2c-0.2,0-0.3,0-0.4,0h-3.3
		c-0.2,0-0.4,0-0.6-0.1c-0.1-0.1-0.3-0.1-0.4-0.3c-0.1-0.1-0.2-0.2-0.2-0.4s-0.1-0.3-0.2-0.5l-0.2-0.8c-0.3,0.3-0.6,0.6-1,0.9
		c-0.4,0.3-0.8,0.5-1.3,0.8s-1,0.4-1.5,0.5c-0.5,0.1-1.1,0.2-1.6,0.2c-1,0-2-0.1-2.9-0.4c-0.9-0.3-1.8-0.6-2.6-1.1
		c-0.8-0.5-1.5-1-2.2-1.7s-1.2-1.4-1.7-2.2c-0.5-0.8-0.8-1.7-1.1-2.6c-0.3-0.9-0.4-1.9-0.4-2.9c0-1.5,0.3-3,0.9-4.3s1.3-2.5,2.3-3.5
		c1-1,2.1-1.8,3.5-2.3c1.3-0.6,2.7-0.8,4.2-0.8c0.7,0,1.3,0.1,1.9,0.2c0.6,0.2,1.1,0.4,1.6,0.6c0.5,0.3,0.9,0.6,1.3,1s0.8,0.8,1,1.2
		l0.5-1.5c0.1-0.3,0.2-0.5,0.3-0.7s0.2-0.3,0.2-0.4c0.1-0.1,0.2-0.1,0.3-0.2s0.3,0,0.5,0h2.5c0.1,0,0.3,0,0.4,0
		c0.2,0,0.3,0.1,0.4,0.2c0.2,0.1,0.3,0.3,0.3,0.4c0.1,0.2,0.1,0.3,0.1,0.5V552.2z M-756.5,542.9c0,0.7,0.1,1.4,0.3,2.1
		c0.2,0.6,0.6,1.2,1,1.7s0.9,0.8,1.5,1.1c0.6,0.3,1.3,0.4,2,0.4c0.7,0,1.4-0.1,2.1-0.4s1.2-0.6,1.7-1.1s0.8-1,1.1-1.7
		s0.4-1.3,0.4-2.1c0-0.7-0.1-1.4-0.4-2s-0.6-1.2-1.1-1.7c-0.5-0.5-1-0.9-1.7-1.2s-1.3-0.4-2.1-0.4c-0.7,0-1.4,0.1-2,0.4
		c-0.6,0.3-1.1,0.7-1.5,1.2c-0.4,0.5-0.7,1.1-1,1.7C-756.3,541.5-756.5,542.2-756.5,542.9z"/>
	<path class="st1" d="M-736,527.3c0-0.4,0.1-0.7,0.3-0.9s0.5-0.4,0.9-0.4h4.1c0.1,0,0.2,0,0.4,0.1c0.1,0.1,0.2,0.1,0.3,0.3
		c0.1,0.1,0.2,0.2,0.3,0.4c0.1,0.2,0.1,0.3,0.1,0.5v24.9c0,0.4-0.1,0.7-0.4,1c-0.2,0.2-0.5,0.3-0.9,0.3h-3.9c-0.4,0-0.7-0.1-0.9-0.3
		s-0.3-0.5-0.3-1V527.3z"/>
</g>
<g id="XMLID_9_">
	<circle id="XMLID_25_" class="st2" cx="-846.1" cy="542.8" r="10.9"/>
	<circle id="XMLID_24_" class="st3" cx="-846.1" cy="542.8" r="8.9"/>
	<g id="XMLID_19_">
		<path id="XMLID_23_" class="st1" d="M-848.7,545.1c3.3-3.9,6.6-7.8,9.9-11.8c-0.6,2.1-0.7,4.4-2.1,6.1c-0.8,1-1.7,1.9-2.7,2.9
			c-2.5,2.5-4.9,4.9-7.3,7.4c-0.2,0.2-0.3,0.1-0.4,0.3c-0.5-0.5-0.7-0.8-0.8-1.6c-0.1-1.2,0.4-2.2,1.1-3.3c0.3-0.4,0.6-0.8,0.9-1.2
			c0.1-0.2,0.2-0.4,0.4-0.6c0.5-0.8,0.3-1.1-0.6-1.2c-0.6,0-1.2-0.1-1.8-0.2c-0.2,0-0.3-0.2-0.5-0.2c0.2-0.1,0.3-0.3,0.5-0.4
			c0.1-0.1,0.2-0.1,0.3-0.1c0.7-0.1,1.3-0.3,1.9-0.7c0.3-0.2,0.7-0.3,1.1-0.2c1,0.1,1.5,0.9,1.2,1.9c-0.1,0.5-0.4,1-0.6,1.4
			C-848.3,544.3-848.5,544.6-848.7,545.1L-848.7,545.1z"/>
		<path id="XMLID_22_" class="st1" d="M-850.4,550.5c3.7-3.5,7.4-6.9,11-10.4c-0.1,0.2-0.1,0.3-0.1,0.3c-0.3,0.7-0.6,1.5-0.8,2.2
			c-0.4,1.1-1.1,2-2,2.8c-2.2,1.7-4.4,3.6-6.5,5.3c-0.3,0.2-0.5,0.3-0.8,0.1C-850,550.7-850.1,550.6-850.4,550.5z"/>
		<path id="XMLID_20_" class="st1" d="M-840.3,545.5c-0.4,0.7-0.7,1.5-1.1,2.2c-0.4,0.6-0.9,1.1-1.4,1.5c-0.9,0.7-1.8,1.2-2.8,1.9
			c-0.4,0.3-0.9,0.5-1.4,0.4c-0.3,0-0.5-0.1-0.9-0.1C-845.5,549.4-843,547.4-840.3,545.5C-840.4,545.4-840.4,545.4-840.3,545.5z"/>
	</g>
</g>
</svg>
